<?xml version="1.0" encoding="UTF-8"?>
<svg version="1.1" xmlns="http://www.w3.org/2000/svg" width="674" height="900">
<path d="M0 0 C222.42 0 444.84 0 674 0 C674 294.03 674 588.06 674 891 C451.58 891 229.16 891 0 891 C0 596.97 0 302.94 0 0 Z " fill="#FDC224" transform="translate(0,1)"/>
<path d="M0 0 C167.64 0 335.28 0 508 0 C508 64.35 508 128.7 508 195 C451.9 195.33 395.8 195.66 338 196 C376.18683979 234.14727019 376.18683979 234.14727019 414.37915039 272.2890625 C421.77429199 279.6796875 421.77429199 279.6796875 425.23899841 283.14355469 C427.65163576 285.55526287 430.06567179 287.96556129 432.48057556 290.375 C435.56716574 293.45469818 438.65131069 296.53682563 441.73375022 299.62067795 C442.86149117 300.74812375 443.99006651 301.87473576 445.11960042 303.00038528 C454.63472825 312.48432619 454.63472825 312.48432619 458.55561829 317.21261597 C461.86372537 321.07937744 465.67627192 323.98448792 469.73236465 327.0342598 C487.41436548 340.46471594 507.54633257 356.56484019 511.23818588 379.6351738 C513.56689254 397.4636373 512.47390748 415.6773235 511.31323075 433.55749249 C510.78764267 441.80480175 510.54344591 450.05444569 510.31488585 458.31446815 C509.84092454 475.2292717 509.03878692 492.11022543 508 509 C488.2575036 514.42789312 468.48435489 517.71982854 448.125 519.625 C447.3599551 519.69876531 446.59491019 519.77253062 445.80668211 519.84853125 C407.17414187 523.46761287 374.26971715 517.19957067 343.66943359 492.33154297 C318.48208274 471.45336227 295.67370027 447.88584122 273.3125 424.0625 C272.349105 423.03766042 271.38568441 422.01284489 270.42223835 420.98805332 C248.59332163 397.75270283 227.2223143 374.11805791 206.47006416 349.91300392 C205.83723607 349.17625799 205.20440797 348.43951205 204.55240327 347.68044049 C203.38184206 346.31585833 202.2142743 344.94870031 201.05029362 343.57850069 C198.39783001 340.34186991 198.39783001 340.34186991 195 338 C195 394.43 195 450.86 195 509 C130.65 509 66.3 509 0 509 C0 341.03 0 173.06 0 0 Z " fill="#000000" transform="translate(83,83)"/>
<path d="M0 0 C13.550625 -0.1546875 13.550625 -0.1546875 27.375 -0.3125 C31.62383057 -0.38078003 31.62383057 -0.38078003 35.95849609 -0.45043945 C38.23013122 -0.46505693 40.50177955 -0.47779461 42.7734375 -0.48828125 C43.93141846 -0.51386108 45.08939941 -0.53944092 46.2824707 -0.5657959 C54.6957974 -0.57027202 61.50547586 0.96997644 67.90682983 6.70976257 C73.22415346 12.27743729 75.13072788 18.28548608 75.5 25.875 C75.30163198 33.33741593 72.76541558 39.16367633 67.5625 44.5 C64.78297628 46.12703828 62.06022269 47.02342275 59 48 C64.04095908 57.15652471 69.22654932 66.16290402 74.89990234 74.9453125 C78 79.79314102 78 79.79314102 78 82 C68.43 82 58.86 82 49 82 C40.015625 66.27734375 40.015625 66.27734375 38.45507812 63.53857422 C37.55142364 61.9620307 36.64006884 60.38984273 35.71679688 58.82470703 C33 54.20447531 33 54.20447531 33 52 C30.36 52 27.72 52 25 52 C25 61.9 25 71.8 25 82 C16.75 82 8.5 82 0 82 C0 54.94 0 27.88 0 0 Z " fill="#010100" transform="translate(83,685)"/>
<path d="M0 0 C5.32089824 2.87722646 9.56565575 5.92314329 13 11 C10.00981858 13.67787358 7.00956345 16.34392524 4 19 C3.38511719 19.54269531 2.77023437 20.08539062 2.13671875 20.64453125 C-1.76026657 24 -1.76026657 24 -4 24 C-4.7425 23.21625 -5.485 22.4325 -6.25 21.625 C-11.26762246 16.83545129 -16.66000588 16.67758248 -23.25 16.75 C-23.96929687 16.74226562 -24.68859375 16.73453125 -25.4296875 16.7265625 C-29.67655306 16.60792093 -29.67655306 16.60792093 -33 19 C-33.07272562 21.55460214 -33.07272562 21.55460214 -32 24 C-27.89727434 26.140891 -23.51931861 26.63696051 -19 27.3125 C-7.73884614 29.1798605 3.33885288 31.94413123 11 41 C14.71023566 46.91318809 14.90891033 53.21346957 14 60 C11.17057078 68.85296965 5.46356803 75.13441497 -2.4375 79.8125 C-14.15072741 85.76705039 -30.07417835 85.77574222 -42.66796875 82.25390625 C-51.7741832 79.22687496 -59.84496886 74.45082717 -66 67 C-65.88696289 64.98144531 -65.88696289 64.98144531 -65 63 C-63.32592773 61.62792969 -63.32592773 61.62792969 -61.18359375 60.421875 C-60.41982422 59.98359375 -59.65605469 59.5453125 -58.86914062 59.09375 C-58.06669922 58.6503125 -57.26425781 58.206875 -56.4375 57.75 C-55.22803711 57.06164062 -55.22803711 57.06164062 -53.99414062 56.359375 C-52.00230403 55.22791753 -50.00448318 54.10884955 -48 53 C-47.57589844 53.39832031 -47.15179688 53.79664063 -46.71484375 54.20703125 C-40.27063142 60.028067 -34.53037896 62.51702219 -25.875 62.3125 C-24.84052734 62.31733398 -24.84052734 62.31733398 -23.78515625 62.32226562 C-19.76247297 62.27996207 -16.61992193 61.76770507 -13 60 C-12.66574265 57.62625139 -12.66574265 57.62625139 -13 55 C-15.8421704 52.31631645 -18.17340824 51.54513774 -22 51.04296875 C-22.96429932 50.90334717 -23.92859863 50.76372559 -24.92211914 50.61987305 C-25.93781982 50.47718994 -26.95352051 50.33450684 -28 50.1875 C-39.30938224 48.39717772 -49.44465446 46.24720936 -56.9140625 36.80859375 C-61.17123185 29.71841602 -60.57986366 22.27649448 -59.5 14.3125 C-55.69726523 5.91479406 -49.82922161 1.29170074 -41.41796875 -2.125 C-29.04791836 -6.60139949 -11.89581324 -5.66052606 0 0 Z " fill="#030200" transform="translate(317,686)"/>
<path d="M0 0 C8.91 0 17.82 0 27 0 C27.0690733 7.79249177 27.12874943 15.58391026 27.16479492 23.37646484 C27.17983019 26.02428803 27.20026376 28.67208653 27.22631836 31.31982422 C27.26293261 35.13775752 27.27977966 38.95535993 27.29296875 42.7734375 C27.30845261 43.94675629 27.32393646 45.12007507 27.33988953 46.32894897 C27.34217995 57.65412748 24.96472683 66.89273395 17.61328125 75.65234375 C10.52732823 82.66690178 0.2036162 85.27762546 -9.5 85.5 C-21.61698861 85.00978988 -32.55645921 83.07780826 -42 75 C-46.54413342 69.53042949 -48.25601614 62.69988949 -48.22705078 55.71923828 C-48.22689972 54.4984256 -48.22674866 53.27761292 -48.22659302 52.01980591 C-48.21627045 50.71647308 -48.20594788 49.41314026 -48.1953125 48.0703125 C-48.19157802 46.71125497 -48.1887331 45.35219474 -48.18673706 43.99313354 C-48.17913483 40.43225551 -48.1595161 36.87154303 -48.1373291 33.31072998 C-48.11679679 29.67071776 -48.10771962 26.03067855 -48.09765625 22.390625 C-48.07626661 15.26034284 -48.04111266 8.13019971 -48 1 C-39.75 1 -31.5 1 -23 1 C-22.95101563 5.06828125 -22.90203125 9.1365625 -22.8515625 13.328125 C-22.80701589 16.57484318 -22.76052074 19.82152045 -22.71270752 23.06819153 C-22.66279322 26.49382585 -22.61630189 29.91942789 -22.578125 33.34521484 C-22.53414924 37.27719477 -22.47451681 41.2088625 -22.4140625 45.140625 C-22.40251129 46.36678528 -22.39096008 47.59294556 -22.37905884 48.85626221 C-22.35918915 49.99714294 -22.33931946 51.13802368 -22.31884766 52.31347656 C-22.30552399 53.31719299 -22.29220032 54.32090942 -22.2784729 55.3550415 C-21.99269507 58.0693828 -21.45738161 59.70993909 -20 62 C-15.94812403 64.6983952 -11.70205569 64.56156458 -7 64 C-3.23601432 62.2880813 -3.23601432 62.2880813 -1 59 C-0.88017743 57.12155092 -0.82270839 55.23899169 -0.79467773 53.35693359 C-0.77473251 52.17586029 -0.75478729 50.99478699 -0.73423767 49.77792358 C-0.71752518 48.49769318 -0.70081268 47.21746277 -0.68359375 45.8984375 C-0.66281265 44.59170074 -0.64203156 43.28496399 -0.62062073 41.93862915 C-0.56540706 38.463311 -0.51599475 34.98793347 -0.46777344 31.51251221 C-0.41755323 27.9666211 -0.36192277 24.42081521 -0.30664062 20.875 C-0.19855498 13.91673179 -0.09952696 6.95841703 0 0 Z " fill="#020200" transform="translate(482,684)"/>
<path d="M0 0 C21.78 0 43.56 0 66 0 C66 6.27 66 12.54 66 19 C53.13 19 40.26 19 27 19 C27 22.96 27 26.92 27 31 C38.88 31 50.76 31 63 31 C63 36.94 63 42.88 63 49 C51.12 49 39.24 49 27 49 C27 54.28 27 59.56 27 65 C41.19 65 55.38 65 70 65 C70 70.94 70 76.88 70 83 C46.9 83 23.8 83 0 83 C0 55.61 0 28.22 0 0 Z " fill="#040300" transform="translate(172,684)"/>
<path d="M0 0 C21.78 0 43.56 0 66 0 C66 6.27 66 12.54 66 19 C52.8 19 39.6 19 26 19 C26 22.96 26 26.92 26 31 C38.21 31 50.42 31 63 31 C63 36.94 63 42.88 63 49 C50.79 49 38.58 49 26 49 C26 54.28 26 59.56 26 65 C39.86 65 53.72 65 68 65 C68 70.94 68 76.88 68 83 C45.56 83 23.12 83 0 83 C0 55.61 0 28.22 0 0 Z " fill="#040300" transform="translate(523,684)"/>
<path d="M0 0 C14.78833117 -0.30019048 25.441456 2.87244938 36.67578125 12.7578125 C38.78125 15.11328125 38.78125 15.11328125 43.78125 23.11328125 C33.38625 28.06328125 33.38625 28.06328125 22.78125 33.11328125 C18.78125 29.11328125 18.78125 29.11328125 16.34375 25.98828125 C13.11744104 22.36851998 11.2265603 21.37586491 6.453125 20.86328125 C0.70329274 20.58784018 -2.79271977 21.10877771 -7.21875 25.11328125 C-13.24498526 33.09397118 -13.01436682 41.12393856 -11.91015625 50.82421875 C-10.78578231 56.65504291 -8.6238933 60.99109599 -4.09375 64.98828125 C1.33283658 67.11172817 6.6778833 66.81440348 12.15625 64.98828125 C16.46423187 61.91115135 18.49250919 57.76103123 20.78125 53.11328125 C23.86812185 54.5432688 26.9500704 55.98357454 30.03125 57.42578125 C30.90394531 57.82990234 31.77664063 58.23402344 32.67578125 58.65039062 C33.52011719 59.04677734 34.36445313 59.44316406 35.234375 59.8515625 C36.00942383 60.21290283 36.78447266 60.57424316 37.58300781 60.9465332 C39.84210204 62.14557933 41.77887342 63.52773406 43.78125 65.11328125 C36.24626069 76.46709348 28.51444538 84.33022522 14.90039062 87.71337891 C3.08145704 89.94372605 -9.72778799 89.30656641 -20.21875 83.11328125 C-31.41488145 75.18073623 -37.50720419 64.45774263 -40.21875 51.11328125 C-41.55806069 38.92282066 -39.24704945 27.14891931 -31.8984375 17.16796875 C-25.0181624 8.75163223 -17.56679617 3.01833026 -6.84375 0.23828125 C-4.56247358 0.15961655 -2.28121995 0.08028565 0 0 Z " fill="#030200" transform="translate(379.21875,681.88671875)"/>
<path d="M0 0 C4.86301361 1.66703712 8.06258001 4.40194782 10.33984375 9.015625 C12.11648361 14.35605725 11.6264465 19.23126238 9.3125 24.3125 C7.30673455 27.77763273 5.64907956 30.13664022 2 32 C-2.88860273 32.94543732 -7.11549126 33.15347514 -11.45703125 30.49609375 C-17.83198851 24.99410361 -17.83198851 24.99410361 -18.23828125 20.171875 C-18.43807368 10.9603923 -18.43807368 10.9603923 -16.375 6.4375 C-11.45534476 1.38838014 -7.21614647 -1.35389982 0 0 Z " fill="#0A0801" transform="translate(454,632)"/>
<path d="M0 0 C5.33739473 1.98844117 8.45333824 4.90667648 11 10 C11.76103899 17.06679062 11.54842968 22.53100103 7.484375 28.4765625 C4.24409651 31.80211147 1.10085114 32.31205477 -3.4375 32.375 C-7.1137436 32.30157303 -8.74248955 32.14484963 -12 30.3125 C-16.9090849 24.63637058 -17.53958413 20.49495813 -17.34765625 13.1015625 C-16.72402928 7.5379691 -14.32269023 5.11693842 -10.1875 1.625 C-6.37985365 -0.31615304 -4.22575274 -0.52821909 0 0 Z " fill="#0E0A02" transform="translate(162,787)"/>
<path d="M0 0 C2.97 0 5.94 0 9 0 C10.65 6.6 12.3 13.2 14 20 C14.33 20 14.66 20 15 20 C15.27714844 18.89140625 15.55429688 17.7828125 15.83984375 16.640625 C17.2265625 11.09375 18.61328125 5.546875 20 0 C22.97 0 25.94 0 29 0 C29 10.23 29 20.46 29 31 C27.02 31 25.04 31 23 31 C22.67 24.07 22.34 17.14 22 10 C20.35 16.93 18.7 23.86 17 31 C15.35 31 13.7 31 12 31 C9.57606466 24.07447045 7.72193997 17.1337513 6 10 C6 16.93 6 23.86 6 31 C4.02 31 2.04 31 0 31 C0 20.77 0 10.54 0 0 Z " fill="#120E02" transform="translate(212,788)"/>
<path d="M0 0 C2.64 0 5.28 0 8 0 C9.98 6.93 11.96 13.86 14 21 C15.98 14.07 17.96 7.14 20 0 C22.64 0 25.28 0 28 0 C28 9.9 28 19.8 28 30 C26.35 30 24.7 30 23 30 C22.67 24.39 22.34 18.78 22 13 C20.35 18.94 18.7 24.88 17 31 C15.35 31 13.7 31 12 31 C9.42235881 23.75805572 7.65951525 16.50733089 6 9 C5.67 16.26 5.34 23.52 5 31 C3.35 31 1.7 31 0 31 C0 20.77 0 10.54 0 0 Z " fill="#100C02" transform="translate(280,788)"/>
<path d="M0 0 C2.51625 -0.103125 5.0325 -0.20625 7.625 -0.3125 C8.79603271 -0.38078003 8.79603271 -0.38078003 9.99072266 -0.45043945 C13.95686214 -0.52847342 16.3332651 -0.1507921 19.4609375 2.39453125 C22.4639082 5.47604119 22.91853871 6.12021805 23.3125 10.375 C23 14 23 14 21.125 16.4375 C19 18 19 18 17 18 C17.433125 18.77085937 17.86625 19.54171875 18.3125 20.3359375 C18.869375 21.33882812 19.42625 22.34171875 20 23.375 C20.556875 24.37273438 21.11375 25.37046875 21.6875 26.3984375 C23 29 23 29 23 31 C21.02 31 19.04 31 17 31 C16.62488281 30.21753906 16.24976563 29.43507813 15.86328125 28.62890625 C15.35152344 27.61699219 14.83976563 26.60507812 14.3125 25.5625 C13.56419922 24.04849609 13.56419922 24.04849609 12.80078125 22.50390625 C11.00785816 19.41087373 11.00785816 19.41087373 6 19 C6 22.96 6 26.92 6 31 C4.02 31 2.04 31 0 31 C0 20.77 0 10.54 0 0 Z " fill="#130E02" transform="translate(240,633)"/>
<path d="M0 0 C1.134375 0.020625 2.26875 0.04125 3.4375 0.0625 C4.86774742 3.99301772 6.29173081 7.92573069 7.70996094 11.8605957 C8.19327135 13.19878168 8.67828598 14.53635343 9.16503906 15.87329102 C9.86452345 17.79544556 10.55784277 19.71972804 11.25 21.64453125 C11.66894531 22.80186768 12.08789062 23.9592041 12.51953125 25.15161133 C13.4375 28.0625 13.4375 28.0625 13.4375 31.0625 C11.4575 31.0625 9.4775 31.0625 7.4375 31.0625 C6.7775 29.0825 6.1175 27.1025 5.4375 25.0625 C1.4775 25.0625 -2.4825 25.0625 -6.5625 25.0625 C-6.5625 27.0425 -6.5625 29.0225 -6.5625 31.0625 C-8.8725 31.0625 -11.1825 31.0625 -13.5625 31.0625 C-12.96183446 26.9659155 -12.06232832 23.18661304 -10.75 19.26171875 C-10.39679687 18.20275391 -10.04359375 17.14378906 -9.6796875 16.05273438 C-9.31101562 14.96283203 -8.94234375 13.87292969 -8.5625 12.75 C-8.00949219 11.08614258 -8.00949219 11.08614258 -7.4453125 9.38867188 C-4.32010827 0.07579137 -4.32010827 0.07579137 0 0 Z " fill="#100C02" transform="translate(541.5625,632.9375)"/>
<path d="M0 0 C5 0 5 0 6.76098633 1.74414062 C7.27943115 2.54013672 7.79787598 3.33613281 8.33203125 4.15625 C8.90244141 5.01347656 9.47285156 5.87070312 10.06054688 6.75390625 C10.63869141 7.66011719 11.21683594 8.56632813 11.8125 9.5 C12.40998047 10.40621094 13.00746094 11.31242188 13.62304688 12.24609375 C15.09751507 14.4872854 16.55079948 16.74238747 18 19 C18.33 12.73 18.66 6.46 19 0 C20.65 0 22.3 0 24 0 C24 10.23 24 20.46 24 31 C22.35 31 20.7 31 19 31 C17.33081055 29.25585938 17.33081055 29.25585938 15.88671875 26.84375 C15.36142578 25.98652344 14.83613281 25.12929688 14.29492188 24.24609375 C13.76447266 23.33988281 13.23402344 22.43367187 12.6875 21.5 C12.13771484 20.59378906 11.58792969 19.68757812 11.02148438 18.75390625 C9.66475367 16.51235117 8.33023982 14.25737666 7 12 C6.67 18.27 6.34 24.54 6 31 C4.02 31 2.04 31 0 31 C0 20.77 0 10.54 0 0 Z " fill="#0B0901" transform="translate(285,633)"/>
<path d="M0 0 C2.31 0 4.62 0 7 0 C9.72286887 6.37471654 12.03862544 12.87162053 14.25 19.4375 C14.52021973 20.23075684 14.79043945 21.02401367 15.06884766 21.84130859 C15.31940918 22.5936377 15.5699707 23.3459668 15.828125 24.12109375 C16.0540332 24.7958374 16.27994141 25.47058105 16.51269531 26.16577148 C17 28 17 28 17 31 C15.35 31 13.7 31 12 31 C11.34 29.35 10.68 27.7 10 26 C6.04 25.67 2.08 25.34 -2 25 C-2.33 26.98 -2.66 28.96 -3 31 C-4.98 31 -6.96 31 -9 31 C-7.64890956 23.99889498 -5.53287359 17.37915062 -3.21875 10.6484375 C-2.03918659 7.11730857 -0.99561147 3.58604502 0 0 Z " fill="#100C02" transform="translate(337,633)"/>
<path d="M0 0 C5 0 5 0 6.45385742 1.42114258 C6.83388916 2.07236084 7.2139209 2.7235791 7.60546875 3.39453125 C8.03150391 4.10287109 8.45753906 4.81121094 8.89648438 5.54101562 C9.32251953 6.29060547 9.74855469 7.04019531 10.1875 7.8125 C10.62513672 8.55048828 11.06277344 9.28847656 11.51367188 10.04882812 C12.32907397 11.42443013 13.13681406 12.80462337 13.93432617 14.19067383 C14.89914474 15.82876555 15.94545389 17.41818084 17 19 C17.33 12.73 17.66 6.46 18 0 C19.65 0 21.3 0 23 0 C23 10.23 23 20.46 23 31 C21.35 31 19.7 31 18 31 C16.33081055 29.25585938 16.33081055 29.25585938 14.88671875 26.84375 C14.36142578 25.98652344 13.83613281 25.12929688 13.29492188 24.24609375 C12.76447266 23.33988281 12.23402344 22.43367187 11.6875 21.5 C11.13771484 20.59378906 10.58792969 19.68757812 10.02148438 18.75390625 C8.66475367 16.51235117 7.33023982 14.25737666 6 12 C5.67 18.27 5.34 24.54 5 31 C3.35 31 1.7 31 0 31 C0 20.77 0 10.54 0 0 Z " fill="#0C0901" transform="translate(112,633)"/>
<path d="M0 0 C2.866875 -0.061875 5.73375 -0.12375 8.6875 -0.1875 C10.02880981 -0.22846802 10.02880981 -0.22846802 11.3972168 -0.27026367 C16.08604008 -0.31916583 19.21011422 -0.08722451 23 3 C24.60964787 6.21929573 24.60686242 9.51887712 24 13 C21.46546343 16.21954645 19.88702695 17.70432435 16 19 C13.25917841 19.07056698 10.55153023 19.09336154 7.8125 19.0625 C5.234375 19.041875 2.65625 19.02125 0 19 C0 12.73 0 6.46 0 0 Z " fill="#F5BB23" transform="translate(108,702)"/>
<path d="M0 0 C1.65 0 3.3 0 5 0 C6.66918945 1.8359375 6.66918945 1.8359375 8.11328125 4.375 C8.9012207 5.72851562 8.9012207 5.72851562 9.70507812 7.109375 C10.23552734 8.06328125 10.76597656 9.0171875 11.3125 10 C11.86228516 10.95390625 12.41207031 11.9078125 12.97851562 12.890625 C14.33567948 15.25090996 15.67002559 17.62428813 17 20 C17 13.4 17 6.8 17 0 C18.98 0 20.96 0 23 0 C23 10.23 23 20.46 23 31 C21.35 31 19.7 31 18 31 C16.23901367 29.1640625 16.23901367 29.1640625 14.66796875 26.625 C14.09755859 25.72265625 13.52714844 24.8203125 12.93945312 23.890625 C12.36130859 22.93671875 11.78316406 21.9828125 11.1875 21 C10.59001953 20.04609375 9.99253906 19.0921875 9.37695312 18.109375 C7.9020176 15.74947815 6.44891301 13.37596276 5 11 C4.67 17.27 4.34 23.54 4 30 C2.68 30 1.36 30 0 30 C0 20.1 0 10.2 0 0 Z " fill="#0E0B02" transform="translate(486,633)"/>
<path d="M0 0 C6.93 0 13.86 0 21 0 C21 1.98 21 3.96 21 6 C15.72 6 10.44 6 5 6 C5 7.98 5 9.96 5 12 C9.95 12 14.9 12 20 12 C20 13.65 20 15.3 20 17 C15.05 17 10.1 17 5 17 C5 19.97 5 22.94 5 26 C10.61 26 16.22 26 22 26 C22 27.32 22 28.64 22 30 C14.74 30 7.48 30 0 30 C0 20.1 0 10.2 0 0 Z " fill="#090701" transform="translate(197,633)"/>
<path d="M0 0 C3.75212276 2.01502889 5.63644095 3.45466142 8 7 C8 7.99 8 8.98 8 10 C6.35 10 4.7 10 3 10 C2.34 8.68 1.68 7.36 1 6 C-0.258125 5.9175 -1.51625 5.835 -2.8125 5.75 C-3.87404297 5.68039062 -3.87404297 5.68039062 -4.95703125 5.609375 C-7.13917873 5.83687185 -7.13917873 5.83687185 -8.73828125 7.640625 C-10.31823204 10.59508405 -10.40004431 12.66075807 -10.375 16 C-10.38273437 17.03125 -10.39046875 18.0625 -10.3984375 19.125 C-9.95965544 22.29111368 -9.12282349 23.66377097 -7 26 C-1.84001623 25.62590749 -1.84001623 25.62590749 2.4375 22.9375 C2.953125 22.298125 3.46875 21.65875 4 21 C5.65 21.66 7.3 22.32 9 23 C8.04934197 26.42236891 7.10525518 27.90978128 4.375 30.25 C0.14976153 32.44086439 -2.22609159 33 -7 33 C-11.97820772 30.51089614 -15.50357707 26.99284586 -18 22 C-18.50502343 16.46957948 -18.73807257 11.58969476 -16.375 6.5 C-11.46577187 1.33239145 -7.15809952 -1.4401754 0 0 Z " fill="#0E0B02" transform="translate(99,787)"/>
<path d="M0 0 C7.26 0 14.52 0 22 0 C22 1.65 22 3.3 22 5 C16.39 5 10.78 5 5 5 C5 7.64 5 10.28 5 13 C9.95 13 14.9 13 20 13 C20 14.32 20 15.64 20 17 C15.05 17 10.1 17 5 17 C5 19.64 5 22.28 5 25 C10.61 25 16.22 25 22 25 C22 26.65 22 28.3 22 30 C14.74 30 7.48 30 0 30 C0 20.1 0 10.2 0 0 Z " fill="#050400" transform="translate(509,788)"/>
<path d="M0 0 C6.93 0 13.86 0 21 0 C21 1.65 21 3.3 21 5 C15.39 5 9.78 5 4 5 C4 7.31 4 9.62 4 12 C9.28 12 14.56 12 20 12 C20 13.65 20 15.3 20 17 C14.72 17 9.44 17 4 17 C4 19.64 4 22.28 4 25 C9.61 25 15.22 25 21 25 C21 26.65 21 28.3 21 30 C14.07 30 7.14 30 0 30 C0 20.1 0 10.2 0 0 Z " fill="#0B0801" transform="translate(570,788)"/>
<path d="M0 0 C2.69990662 1.79993774 4.5418865 3.083773 6 6 C6.44080589 10.3148115 6.47056025 13.94684134 4.6875 17.9375 C3 20 3 20 0 22 C-4.51579341 22 -6.47202765 21.44933817 -9.9375 18.5 C-12.35827936 15.17343233 -12.65865815 12.1654329 -12.43359375 8.12109375 C-11.78656435 4.95589587 -10.31896482 3.18255512 -8 1 C-5.14675563 -0.42662219 -3.16545451 -0.31033868 0 0 Z " fill="#F7BD23" transform="translate(453,638)"/>
<path d="M0 0 C4.27280216 0.97918383 5.5809731 1.98781179 8 5.6875 C8.97644847 11.38869912 9.0856927 16.02702882 5.875 20.9375 C2.44812458 23.02342417 0.9330652 23.50688858 -3 22.6875 C-5.875 20.875 -5.875 20.875 -8 17.6875 C-8.84633617 13.19645804 -8.98226006 8.86845031 -7.078125 4.640625 C-5.04185277 1.86389014 -3.33439035 0.76413112 0 0 Z " fill="#F9BE24" transform="translate(159,791.3125)"/>
<path d="M0 0 C7.26 0 14.52 0 22 0 C22 1.98 22 3.96 22 6 C19.03 6 16.06 6 13 6 C13 14.25 13 22.5 13 31 C11.02 31 9.04 31 7 31 C7 22.75 7 14.5 7 6 C4.69 6 2.38 6 0 6 C0 4.02 0 2.04 0 0 Z " fill="#110D02" transform="translate(368,633)"/>
<path d="M0 0 C7.59 0 15.18 0 23 0 C23 1.65 23 3.3 23 5 C20.03 5 17.06 5 14 5 C14 13.58 14 22.16 14 31 C12.02 31 10.04 31 8 31 C8 22.42 8 13.84 8 5 C5.36 5 2.72 5 0 5 C0 3.35 0 1.7 0 0 Z " fill="#0D0901" transform="translate(449,788)"/>
<path d="M0 0 C7.26 0 14.52 0 22 0 C22 1.65 22 3.3 22 5 C19.36 5 16.72 5 14 5 C14 13.58 14 22.16 14 31 C12.02 31 10.04 31 8 31 C8 22.42 8 13.84 8 5 C5.36 5 2.72 5 0 5 C0 3.35 0 1.7 0 0 Z " fill="#0A0801" transform="translate(392,788)"/>
<path d="M0 0 C7.26 0 14.52 0 22 0 C22 1.98 22 3.96 22 6 C19.36 6 16.72 6 14 6 C14 14.25 14 22.5 14 31 C12.35 31 10.7 31 9 31 C9 22.75 9 14.5 9 6 C6.03 6 3.06 6 0 6 C0 4.02 0 2.04 0 0 Z " fill="#070501" transform="translate(155,633)"/>
<path d="M0 0 C1.98 0 3.96 0 6 0 C6 8.58 6 17.16 6 26 C9.96 26 13.92 26 18 26 C18 27.65 18 29.3 18 31 C12.06 31 6.12 31 0 31 C0 20.77 0 10.54 0 0 Z " fill="#191303" transform="translate(574,633)"/>
<path d="M0 0 C1.98 0 3.96 0 6 0 C6 10.23 6 20.46 6 31 C4.02 31 2.04 31 0 31 C0 20.77 0 10.54 0 0 Z " fill="#110D02" transform="translate(348,788)"/>
<path d="M0 0 C1.65 0 3.3 0 5 0 C5 9.9 5 19.8 5 30 C3.35 30 1.7 30 0 30 C0 20.1 0 10.2 0 0 Z " fill="#010000" transform="translate(410,633)"/>
<path d="M0 0 C1.32 0 2.64 0 4 0 C4 9.9 4 19.8 4 30 C2.68 30 1.36 30 0 30 C0 20.1 0 10.2 0 0 Z " fill="#010000" transform="translate(83,633)"/>
<path d="M0 0 C1.258125 -0.04125 2.51625 -0.0825 3.8125 -0.125 C4.52019531 -0.14820313 5.22789062 -0.17140625 5.95703125 -0.1953125 C8 0 8 0 11 2 C11.25 5.0625 11.25 5.0625 11 8 C10 9 10 9 7.71484375 9.09765625 C6.34005859 9.08025391 6.34005859 9.08025391 4.9375 9.0625 C4.01839844 9.05347656 3.09929687 9.04445313 2.15234375 9.03515625 C1.44207031 9.02355469 0.73179687 9.01195312 0 9 C0 6.03 0 3.06 0 0 Z " fill="#F5BB23" transform="translate(246,638)"/>
<path d="M0 0 C1.69433918 3.0469629 2.49467112 5.82821466 3.125 9.25 C3.29257812 10.14203125 3.46015625 11.0340625 3.6328125 11.953125 C3.75398438 12.62859375 3.87515625 13.3040625 4 14 C1.36 14 -1.28 14 -4 14 C-3.71572583 12.41532272 -3.42225182 10.8322943 -3.125 9.25 C-2.96257812 8.36828125 -2.80015625 7.4865625 -2.6328125 6.578125 C-2.03203736 4.13052256 -1.22002883 2.19400143 0 0 Z " fill="#E6B021" transform="translate(341,639)"/>
<path d="M0 0 C0.66 0 1.32 0 2 0 C2.50757862 1.41396902 3.00574925 2.83131729 3.5 4.25 C3.7784375 5.03890625 4.056875 5.8278125 4.34375 6.640625 C5 9 5 9 5 13 C2.69 13 0.38 13 -2 13 C-1.85769192 11.58297487 -1.71099254 10.1663904 -1.5625 8.75 C-1.48128906 7.96109375 -1.40007813 7.1721875 -1.31640625 6.359375 C-1.02365007 4.17635361 -0.57935581 2.1226818 0 0 Z " fill="#E8B221" transform="translate(540,640)"/>
<path d="M0 0 C2.13262124 3.19893186 2.59021548 5.22998243 3 9 C2.67 9.33 2.34 9.66 2 10 C1.76346477 12.52596259 1.57826308 15.03107207 1.4375 17.5625 C1.39431641 18.27341797 1.35113281 18.98433594 1.30664062 19.71679688 C1.20028223 21.47761912 1.09961154 23.2387832 1 25 C0.67 25 0.34 25 0 25 C0 16.75 0 8.5 0 0 Z " fill="#C89A1D" transform="translate(285,794)"/>
</svg>
