<?xml version="1.0" encoding="UTF-8"?>
<svg version="1.1" xmlns="http://www.w3.org/2000/svg" width="315" height="83">
<path d="M0 0 C103.95 0 207.9 0 315 0 C315 27.39 315 54.78 315 83 C211.05 83 107.1 83 0 83 C0 55.61 0 28.22 0 0 Z " fill="#FCFBFB" transform="translate(0,0)"/>
<path d="M0 0 C2.64592605 1.05152329 3.89158554 2.00871968 6 4 C6 4.66 6 5.32 6 6 C6.99 6 7.98 6 9 6 C9.268125 5.38125 9.53625 4.7625 9.8125 4.125 C11 2 11 2 14 0 C19.43639207 -0.62420523 25.83590284 -1.32957134 30.625 1.75 C35.87523477 6.72390663 35.87523477 6.72390663 36.34057617 11.48339844 C36.34010423 12.85881543 36.32333368 14.23429315 36.29296875 15.609375 C36.28872391 16.33618469 36.28447906 17.06299438 36.28010559 17.81182861 C36.2633613 20.12493504 36.22571885 22.43715855 36.1875 24.75 C36.17244758 26.32160197 36.15876015 27.89321764 36.14648438 29.46484375 C36.11347195 33.31023415 36.06172056 37.15496756 36 41 C32.04 41 28.08 41 24 41 C23.98541748 40.13197754 23.97083496 39.26395508 23.95581055 38.36962891 C23.89479889 35.15261121 23.82065609 31.93624337 23.73754883 28.71972656 C23.70427127 27.32693911 23.67624803 25.93401589 23.65356445 24.54101562 C23.62007311 22.54008622 23.56618695 20.53953079 23.51171875 18.5390625 C23.48553467 17.33459473 23.45935059 16.13012695 23.43237305 14.88916016 C23.21834839 13.45902588 23.21834839 13.45902588 23 12 C20.11487022 9.65477065 20.11487022 9.65477065 16.5 10.125 C13.03905846 10.67108615 13.03905846 10.67108615 11.31323242 12.68847656 C9.67973301 15.56372706 9.57239589 17.56208097 9.48828125 20.859375 C9.45283203 21.97441406 9.41738281 23.08945312 9.38085938 24.23828125 C9.35830078 25.39714844 9.33574219 26.55601563 9.3125 27.75 C9.27833984 28.92433594 9.24417969 30.09867188 9.20898438 31.30859375 C9.1265551 34.20539401 9.06159987 37.10268196 9 40 C5.37 40 1.74 40 -2 40 C-2.01458252 39.23333008 -2.02916504 38.46666016 -2.04418945 37.67675781 C-2.1186922 34.20066507 -2.21534646 30.72553032 -2.3125 27.25 C-2.33505859 26.0434375 -2.35761719 24.836875 -2.38085938 23.59375 C-2.41630859 22.43359375 -2.45175781 21.2734375 -2.48828125 20.078125 C-2.51446533 19.00981445 -2.54064941 17.94150391 -2.56762695 16.84082031 C-3.05133332 13.66272471 -3.70974318 12.23688711 -6 10 C-10.57596857 9.38707657 -10.57596857 9.38707657 -14.68676758 11.13989258 C-16.57837654 13.81923235 -16.43525114 15.94169865 -16.51171875 19.19921875 C-16.54716797 20.40771484 -16.58261719 21.61621094 -16.61914062 22.86132812 C-16.65297852 24.7552832 -16.65297852 24.7552832 -16.6875 26.6875 C-16.72166016 27.96173828 -16.75582031 29.23597656 -16.79101562 30.54882812 C-16.87360195 33.69890643 -16.93847391 36.84943999 -17 40 C-20.96 40 -24.92 40 -29 40 C-29 27.13 -29 14.26 -29 1 C-25.37 1 -21.74 1 -18 1 C-17.67 2.32 -17.34 3.64 -17 5 C-16.4225 4.175 -15.845 3.35 -15.25 2.5 C-11.15874632 -1.61469926 -5.35087021 -0.80154736 0 0 Z " fill="#373539" transform="translate(181,28)"/>
<path d="M0 0 C4.29671388 2.70879788 6.97861732 6.12884737 8.875 10.8125 C9.11791992 13.82104492 9.11791992 13.82104492 9.10546875 17.29296875 C9.10353516 18.53884766 9.10160156 19.78472656 9.09960938 21.06835938 C9.08124023 23.01452148 9.08124023 23.01452148 9.0625 25 C9.06185547 26.30904297 9.06121094 27.61808594 9.06054688 28.96679688 C9.01521767 38.67228233 9.01521767 38.67228233 7.875 39.8125 C6.02212498 39.88476502 4.16666122 39.8963122 2.3125 39.875 C1.30058594 39.86597656 0.28867188 39.85695312 -0.75390625 39.84765625 C-1.92759766 39.83025391 -1.92759766 39.83025391 -3.125 39.8125 C-3.125 38.4925 -3.125 37.1725 -3.125 35.8125 C-3.82625 36.4725 -4.5275 37.1325 -5.25 37.8125 C-10.47324765 41.29883037 -17.1571415 40.63979792 -23.125 39.8125 C-26.55475374 38.25183867 -28.28296483 35.96072978 -30.5 32.9375 C-31.44639581 29.71975424 -31.4760829 27.14778753 -31.125 23.8125 C-28.33402526 19.26424487 -25.11978452 16.5428071 -19.8984375 15.26953125 C-13.13993402 14.2128612 -9.11360485 15.62501677 -3.125 18.8125 C-3.455 15.8425 -3.785 12.8725 -4.125 9.8125 C-8.14150518 8.47366494 -11.93101574 8.0783575 -16.125 8.8125 C-18.28102694 11.14999166 -18.28102694 11.14999166 -19.125 13.8125 C-22.755 13.4825 -26.385 13.1525 -30.125 12.8125 C-29.14064237 7.89071186 -27.8467908 5.0480711 -24.125 1.8125 C-17.11318627 -2.42255559 -7.72793328 -2.93359723 0 0 Z " fill="#38363A" transform="translate(251.125,29.1875)"/>
<path d="M0 0 C6.66881477 3.34001143 10.11950523 8.17492194 12.44921875 15.1640625 C12.44921875 17.8040625 12.44921875 20.4440625 12.44921875 23.1640625 C2.87921875 23.1640625 -6.69078125 23.1640625 -16.55078125 23.1640625 C-15.23078125 25.8040625 -13.91078125 28.4440625 -12.55078125 31.1640625 C-6.42356801 31.88638094 -6.42356801 31.88638094 -0.7734375 30.05078125 C0.74383604 28.54838027 0.74383604 28.54838027 2.44921875 26.1640625 C5.93592709 27.2734697 9.22406112 28.42743916 12.44921875 30.1640625 C11.0958628 33.25266197 9.64035626 35.1720265 7.07421875 37.3515625 C6.48898438 37.86074219 5.90375 38.36992188 5.30078125 38.89453125 C1.33634392 41.6127636 -2.79076281 41.3264957 -7.48828125 41.3515625 C-8.69355469 41.36574219 -9.89882812 41.37992188 -11.140625 41.39453125 C-17.22130216 40.98358056 -21.32844267 38.47894549 -25.55078125 34.1640625 C-29.81115324 28.78253998 -30.23826012 24.13223672 -29.98828125 17.3203125 C-29.17601889 11.46041978 -26.89845676 8.00982117 -22.28515625 4.3828125 C-15.07481605 -0.54812983 -8.74612444 -2.86626437 0 0 Z " fill="#3C3A3E" transform="translate(75.55078125,27.8359375)"/>
<path d="M0 0 C4.90137843 2.38475139 8.77432878 7.39899302 10.6796875 12.41015625 C10.6796875 15.71015625 10.6796875 19.01015625 10.6796875 22.41015625 C1.1096875 22.41015625 -8.4603125 22.41015625 -18.3203125 22.41015625 C-15.9000634 28.04122386 -15.9000634 28.04122386 -13.3203125 30.41015625 C-9.41309907 31.16613441 -5.73391817 31.14780139 -2.171875 29.2890625 C-0.49190006 28.07879484 1.10290303 26.75210048 2.6796875 25.41015625 C5.3196875 26.73015625 7.9596875 28.05015625 10.6796875 29.41015625 C9.48807701 34.04419706 7.21313484 35.81497405 3.43359375 38.39453125 C-2.54545162 41.85678469 -10.9452157 41.02970541 -17.5703125 39.91015625 C-22.61634326 38.46087697 -26.1386424 34.41699765 -29.3203125 30.41015625 C-31.5814787 23.62665766 -31.12209658 14.94765245 -28.3203125 8.41015625 C-20.6392566 -0.7644383 -11.55723444 -2.93795017 0 0 Z " fill="#39373B" transform="translate(137.3203125,28.58984375)"/>
<path d="M0 0 C3.73363714 1.20545004 6.25403538 3.02502938 8.6652832 6.17651367 C10.37548709 9.79431283 10.34070728 12.49415784 10.29296875 16.48828125 C10.28872391 17.19147995 10.28447906 17.89467865 10.28010559 18.6191864 C10.2634006 20.85069131 10.22576614 23.08127113 10.1875 25.3125 C10.17244248 26.8313671 10.15875594 28.35024846 10.14648438 29.86914062 C10.11352473 33.57972434 10.06180016 37.28977178 10 41 C6.04 41 2.08 41 -2 41 C-2.06058594 39.02515625 -2.12117188 37.0503125 -2.18359375 35.015625 C-2.26800296 32.42707595 -2.35265077 29.83853467 -2.4375 27.25 C-2.47681641 25.94804688 -2.51613281 24.64609375 -2.55664062 23.3046875 C-2.59853516 22.05429687 -2.64042969 20.80390625 -2.68359375 19.515625 C-2.72025146 18.36352539 -2.75690918 17.21142578 -2.79467773 16.02441406 C-2.96452174 13.52259776 -3.27968475 11.38908832 -4 9 C-5.43847561 9.03317239 -6.8761407 9.10273877 -8.3125 9.1875 C-9.11300781 9.22230469 -9.91351563 9.25710937 -10.73828125 9.29296875 C-13.19216807 9.81727192 -13.19216807 9.81727192 -14.609375 12.15820312 C-16.18988667 15.38804089 -16.42352622 17.59516467 -16.51171875 21.17578125 C-16.54716797 22.33271484 -16.58261719 23.48964844 -16.61914062 24.68164062 C-16.65297852 26.47891602 -16.65297852 26.47891602 -16.6875 28.3125 C-16.72166016 29.53001953 -16.75582031 30.74753906 -16.79101562 32.00195312 C-16.87334189 35.00098118 -16.93835138 38.00047565 -17 41 C-20.96 41 -24.92 41 -29 41 C-29 27.8 -29 14.6 -29 1 C-25.37 1 -21.74 1 -18 1 C-18 2.32 -18 3.64 -18 5 C-17.34 5 -16.68 5 -16 5 C-15.67 4.01 -15.34 3.02 -15 2 C-10.31283096 -1.12477936 -5.48666508 -0.57492868 0 0 Z " fill="#3A383C" transform="translate(293,28)"/>
<path d="M0 0 C1.12019531 0.32484375 2.24039062 0.6496875 3.39453125 0.984375 C8.19006024 2.17982508 12.7658626 2.29661377 17.6875 2.25 C18.92983398 2.26160156 18.92983398 2.26160156 20.19726562 2.2734375 C24.65763101 2.2591529 27.88736913 1.86735672 32 0 C33.32 0 34.64 0 36 0 C36.51548831 3.15020635 36.74055192 4.95156369 36 8 C33.35872664 11.38669939 30.16779612 14.11423343 27 17 C25.68450328 18.41572504 24.39048975 19.85190262 23.125 21.3125 C22.32449219 22.23482422 22.32449219 22.23482422 21.5078125 23.17578125 C19.93742932 25.02788971 19.93742932 25.02788971 18.4296875 27.23046875 C17.95789063 27.81441406 17.48609375 28.39835937 17 29 C16.34 29 15.68 29 15 29 C15 29.66 15 30.32 15 31 C21.6 31 28.2 31 35 31 C35 33.97 35 36.94 35 40 C23.45 40 11.9 40 0 40 C0 31 0 31 2.01171875 27.92578125 C2.89472656 27.06339844 3.77773437 26.20101562 4.6875 25.3125 C6.05068359 23.93578125 6.05068359 23.93578125 7.44140625 22.53125 C8.28574219 21.6959375 9.13007813 20.860625 10 20 C11.71881492 18.03564009 13.35603017 16.0275628 15 14 C10.05 12.68 5.1 11.36 0 10 C0 6.7 0 3.4 0 0 Z " fill="#F15F29" transform="translate(9,28)"/>
<path d="M0 0 C3.96 0 7.92 0 12 0 C12 18.81 12 37.62 12 57 C8.04 57 4.08 57 0 57 C0 38.19 0 19.38 0 0 Z " fill="#3C3A3E" transform="translate(91,12)"/>
<path d="M0 0 C3.20384459 0.05101663 4.45590103 0.17128111 7.25 1.875 C9.1719884 5.13402381 8.97327701 7.59739886 8.6875 11.3125 C8.130625 11.0959375 7.57375 10.879375 7 10.65625 C1.63561407 8.69897405 -2.61102383 8.00151039 -8.3125 8.3125 C-8.6425 7.6525 -8.9725 6.9925 -9.3125 6.3125 C-8.6525 6.3125 -7.9925 6.3125 -7.3125 6.3125 C-7.003125 5.508125 -6.69375 4.70375 -6.375 3.875 C-4.78223429 0.03362388 -4.0239164 0.12512997 0 0 Z " fill="#F7F7F7" transform="translate(239.3125,36.6875)"/>
<path d="M0 0 C3.82116982 0.32382795 5.62930359 1.08835716 8.6875 3.3125 C8.375 5.1875 8.375 5.1875 7.6875 7.3125 C3.61900591 10.02482939 1.52273216 9.61949887 -3.3125 9.3125 C-5.3125 7.3125 -5.3125 7.3125 -5.5625 4.8125 C-5.15949874 0.78248736 -3.92041984 0.36985093 0 0 Z " fill="#F4F4F4" transform="translate(238.3125,51.6875)"/>
<path d="M0 0 C3.34748618 0.0700762 4.37414374 0.19756508 7.1875 2.1875 C8.625 4.375 8.625 4.375 8.625 7.375 C3.015 7.375 -2.595 7.375 -8.375 7.375 C-5.46128763 0.09071906 -5.46128763 0.09071906 0 0 Z " fill="#F6F6F6" transform="translate(127.375,36.625)"/>
<path d="M0 0 C2.27734375 -0.3984375 2.27734375 -0.3984375 4.9375 -0.375 C6.25041016 -0.38660156 6.25041016 -0.38660156 7.58984375 -0.3984375 C10 0 10 0 11.81640625 1.2734375 C13 3 13 3 13 7 C7.72 7 2.44 7 -3 7 C-2 3 -2 3 0 0 Z " fill="#F5F5F5" transform="translate(62,37)"/>
<path d="M0 0 C2 2 2 2 2.24291992 4.78149414 C2.23675659 6.51580688 2.23675659 6.51580688 2.23046875 8.28515625 C2.22853516 9.53748047 2.22660156 10.78980469 2.22460938 12.08007812 C2.21236328 13.39427734 2.20011719 14.70847656 2.1875 16.0625 C2.18685547 17.38056641 2.18621094 18.69863281 2.18554688 20.05664062 C2.14009123 29.85990877 2.14009123 29.85990877 1 31 C-0.85287502 31.07226502 -2.70833878 31.0838122 -4.5625 31.0625 C-5.57441406 31.05347656 -6.58632812 31.04445313 -7.62890625 31.03515625 C-8.41136719 31.02355469 -9.19382813 31.01195313 -10 31 C-10.33 29.35 -10.66 27.7 -11 26 C-10.34 26 -9.68 26 -9 26 C-9 26.99 -9 27.98 -9 29 C-6.03 29 -3.06 29 0 29 C0 19.43 0 9.86 0 0 Z " fill="#747275" transform="translate(258,38)"/>
<path d="M0 0 C3.0625 0.1875 3.0625 0.1875 5.0625 2.1875 C4.73278521 5.48464793 4.4398161 6.8101839 2.0625 9.1875 C-0.4375 9.5 -0.4375 9.5 -2.9375 9.1875 C-4.9375 6.1875 -4.9375 6.1875 -4.625 3.5625 C-3.63731654 0.1505026 -3.65603948 0.23336422 0 0 Z " fill="#F26531" transform="translate(18.9375,14.8125)"/>
<path d="M0 0 C2.5625 0.1875 2.5625 0.1875 4.5625 2.1875 C4.8125 4.6875 4.8125 4.6875 4.5625 7.1875 C2.5625 9.1875 2.5625 9.1875 0.0625 9.5 C-1.175 9.3453125 -1.175 9.3453125 -2.4375 9.1875 C-4.4375 6.1875 -4.4375 6.1875 -4.125 3.5625 C-3.16420807 0.24340062 -3.16420807 0.24340062 0 0 Z " fill="#F15F29" transform="translate(34.4375,14.8125)"/>
<path d="M0 0 C0.66 0.33 1.32 0.66 2 1 C1.50628906 1.43570313 1.01257813 1.87140625 0.50390625 2.3203125 C-3.73531982 6.21395104 -3.73531982 6.21395104 -5.9375 11.4375 C-5.958125 12.283125 -5.97875 13.12875 -6 14 C-6.33 14 -6.66 14 -7 14 C-7.31974464 9.92325579 -7.43803342 7.67970704 -5.1875 4.1875 C-3 2 -3 2 0 0 Z " fill="#626063" transform="translate(227,46)"/>
<path d="M0 0 C1.21816406 0.03480469 1.21816406 0.03480469 2.4609375 0.0703125 C3.68683594 0.09738281 3.68683594 0.09738281 4.9375 0.125 C5.87722656 0.15980469 5.87722656 0.15980469 6.8359375 0.1953125 C6.5059375 0.8553125 6.1759375 1.5153125 5.8359375 2.1953125 C4.505625 2.0715625 4.505625 2.0715625 3.1484375 1.9453125 C-0.85414409 2.24739413 -2.29241684 3.49258717 -5.1640625 6.1953125 C-4.4726412 2.73820598 -3.94163347 0.35574309 0 0 Z " fill="#C0BFC0" transform="translate(282.1640625,36.8046875)"/>
<path d="M0 0 C0.66 0.33 1.32 0.66 2 1 C-0.97 3.97 -3.94 6.94 -7 10 C-7 7 -7 7 -4.625 4.4375 C-3.75875 3.633125 -2.8925 2.82875 -2 2 C-1.34 1.34 -0.68 0.68 0 0 Z " fill="#605F62" transform="translate(116,30)"/>
<path d="M0 0 C2 2 2 2 2.125 5.625 C2.08375 6.73875 2.0425 7.8525 2 9 C0.68 8.34 -0.64 7.68 -2 7 C-1.34 7 -0.68 7 0 7 C0 4.69 0 2.38 0 0 Z " fill="#B0AFB1" transform="translate(246,39)"/>
<path d="M0 0 C2.97 0 5.94 0 9 0 C9 0.33 9 0.66 9 1 C7.9275 1.12375 6.855 1.2475 5.75 1.375 C2.62136385 1.89643936 0.66519576 2.40088254 -2 4 C-1.34 2.68 -0.68 1.36 0 0 Z " fill="#CDCDCE" transform="translate(235,37)"/>
</svg>
